<svg width="84" height="67" viewBox="0 0 84 67" fill="none" xmlns="http://www.w3.org/2000/svg">
<path d="M42.1327 40.8703C40.5788 40.8703 39.0556 40.456 37.7204 39.6656L28.1669 34.0255C25.5272 32.4601 23.9081 29.6209 23.9004 26.5515V14.976C23.9081 11.9104 25.5272 9.07119 28.1669 7.50579L37.7204 1.86574C40.4407 0.258132 43.8247 0.258132 46.545 1.86574L56.0986 7.50579C58.7383 9.07119 60.3574 11.9104 60.3651 14.976V26.5515C60.3574 29.6171 58.7383 32.4563 56.0986 34.0217L46.545 39.6618C45.2098 40.4521 43.6866 40.8703 42.1327 40.8703ZM42.1327 3.0091C41.0009 3.0091 39.8921 3.3122 38.9175 3.88772L29.364 9.52777C27.4417 10.6711 26.26 12.7391 26.2562 14.976V26.5515C26.26 28.7884 27.4417 30.8564 29.364 31.9997L38.9175 37.6398C40.9011 38.81 43.3643 38.81 45.3479 37.6398L54.9015 31.9997C56.8237 30.8564 58.0054 28.7884 58.0093 26.5515V14.976C58.0054 12.7391 56.8237 10.6711 54.9015 9.52777L45.3479 3.88772C44.3734 3.3122 43.2646 3.0091 42.1327 3.0091Z" fill="url(#paint0_linear_267_222)"/>
<path d="M50.1758 15.5669C50.0031 15.2408 49.7039 15.0029 49.347 14.907C48.9979 14.7996 48.618 14.8418 48.2996 15.0221L42.3526 18.4062L36.5552 15.0758C36.2368 14.8955 35.857 14.8533 35.5078 14.9607C34.775 15.1756 34.3491 15.9391 34.5563 16.6758C34.6522 17.0288 34.8901 17.328 35.2124 17.5007L40.9675 20.808V27.4533C40.9599 27.8216 41.1095 28.1746 41.3742 28.4278C41.9152 28.9649 42.7938 28.9649 43.3348 28.4278C43.5996 28.1746 43.7492 27.8216 43.7415 27.4533V20.8195L49.6463 17.447C49.9686 17.2743 50.2065 16.975 50.3024 16.6221C50.406 16.2691 50.3599 15.8854 50.1758 15.5669Z" fill="#51AED1"/>
<path d="M42.3413 15.9275C43.28 15.9275 44.041 15.1665 44.041 14.2278C44.041 13.2891 43.28 12.5281 42.3413 12.5281C41.4026 12.5281 40.6416 13.2891 40.6416 14.2278C40.6416 15.1665 41.4026 15.9275 42.3413 15.9275Z" fill="#51AED1"/>
<path d="M1.85105 45.0524C0.991612 45.0601 0.28181 44.3771 0.262626 43.5177V43.3911C0.262626 42.5278 0.964755 41.8257 1.82803 41.8257C2.6913 41.8257 3.39343 42.5278 3.39343 43.3911V43.5177C3.37808 44.3618 2.69514 45.0409 1.85105 45.0524ZM1.85105 59.8662C0.980102 59.8738 0.270299 59.1794 0.258789 58.3084V48.5592C0.258789 47.6959 0.960918 46.9938 1.82419 46.9938C2.68746 46.9938 3.38959 47.6959 3.38959 48.5592V58.3084C3.38192 59.1602 2.70281 59.8508 1.85105 59.8662ZM17.0715 53.5317V58.3084C17.0715 59.1372 16.4001 59.8125 15.5675 59.8125C14.7349 59.8125 14.0635 59.141 14.0635 58.3084V53.5317C14.0635 51.7399 12.7513 50.3011 11.1629 50.3011C9.19463 50.3011 8.18556 52.2694 8.18556 54.0113V58.3084C8.14335 59.1449 7.43355 59.7894 6.59713 59.7472C5.81827 59.7089 5.20055 59.0873 5.15834 58.3084V48.659C5.16985 47.8264 5.84129 47.155 6.67387 47.1434C7.31845 47.1473 7.89012 47.5655 8.0858 48.1794C8.99895 47.5847 10.0656 47.2701 11.1552 47.2701C14.4165 47.2701 17.0638 50.0747 17.0638 53.5317H17.0715ZM24.5302 59.8163C21.0311 59.7971 18.211 56.9464 18.2302 53.4473C18.2494 49.9481 21.1001 47.1281 24.5993 47.1473C28.0946 47.1665 30.9107 50.0095 30.8992 53.5048C30.8839 57.0039 28.0332 59.8316 24.534 59.8163C24.534 59.8163 24.534 59.8163 24.5302 59.8163ZM24.5302 50.2512C22.7461 50.2512 21.2996 51.6977 21.2996 53.4818C21.2996 55.2659 22.7461 56.7123 24.5302 56.7123C26.3143 56.7123 27.7608 55.2659 27.7608 53.4818C27.7684 51.7054 26.3296 50.2589 24.5532 50.2512C24.5455 50.2512 24.5379 50.2512 24.5302 50.2512ZM37.3757 59.8163H37.3488C36.7887 59.8086 36.2822 59.4863 36.0367 58.9837L31.2906 49.5184C30.9261 48.7741 31.2292 47.8724 31.9735 47.5003C32.7102 47.1358 33.6042 47.4427 33.9648 48.1794C33.9648 48.1794 33.9648 48.1794 33.9648 48.1832L37.3719 54.9973L40.7789 48.3597C41.1472 47.6269 42.0412 47.3353 42.774 47.7036C43.5069 48.0719 43.7985 48.9659 43.4301 49.6987L38.684 58.9876C38.4423 59.4863 37.9397 59.8048 37.3834 59.8163H37.3719H37.3757ZM56.8588 48.6897V58.3545C56.8588 59.1525 56.2104 59.7971 55.4124 59.7933C55.4047 59.7933 55.4008 59.7933 55.3932 59.7933C54.6527 59.7933 54.0541 59.1986 54.0503 58.4581C54.0503 58.4235 54.0503 58.389 54.0503 58.3545V58.0514C52.9914 59.0106 51.6178 59.5401 50.1905 59.5401C46.8257 59.6245 44.0287 56.9656 43.9443 53.5969C43.8598 50.2282 46.5187 47.435 49.8874 47.3506C49.991 47.3506 50.0908 47.3506 50.1943 47.3506C51.6216 47.3621 52.9952 47.8801 54.0733 48.8124V48.6858C54.0196 47.9492 54.5721 47.3046 55.3088 47.2509C55.3433 47.2509 55.3778 47.2509 55.4124 47.2509C56.2104 47.2432 56.8627 47.8801 56.8703 48.6782C56.8703 48.682 56.8703 48.6858 56.8703 48.6897H56.8588ZM53.352 53.4588C53.375 51.7092 51.9708 50.2743 50.2212 50.2512C48.4716 50.2282 47.0367 51.6325 47.0137 53.382C46.9906 55.1316 48.3949 56.5666 50.1445 56.5896C50.1637 56.5896 50.179 56.5896 50.1982 56.5896C51.9324 56.5857 53.3443 55.1892 53.3635 53.4549H53.352V53.4588ZM70.0842 48.8163V59.8432C70.1187 63.3154 67.3485 66.1662 63.8763 66.2275C62.0576 66.2237 60.3388 65.4065 59.1839 64.0061C58.6583 63.3653 58.7235 62.4253 59.3335 61.8613C59.9091 61.3357 60.803 61.374 61.3287 61.9495C61.3555 61.9764 61.3785 62.0071 61.4016 62.0378C62.5449 63.419 64.5899 63.6109 65.9712 62.4675C66.75 61.8229 67.1836 60.8522 67.1452 59.8432V58.8072C66.2704 59.3098 65.2767 59.5746 64.2676 59.5746C61.0869 59.5746 58.4894 56.7968 58.4894 53.3667V48.8623C58.4472 48.0528 59.0688 47.366 59.8784 47.3238C60.6879 47.2816 61.3747 47.9031 61.4169 48.7127C61.4169 48.7626 61.4169 48.8124 61.4169 48.8623V53.3782C61.4169 55.1201 62.7022 56.5589 64.2676 56.5589C65.833 56.5589 67.1452 55.1201 67.1452 53.3782V48.8124C67.1452 47.9952 67.8051 47.3353 68.6224 47.3353C69.4396 47.3353 70.0995 47.9952 70.0995 48.8124L70.0842 48.8201V48.8163ZM83.9925 48.6897V58.3545C83.9925 59.1525 83.344 59.7971 82.546 59.7933C82.5383 59.7933 82.5345 59.7933 82.5268 59.7933C81.7863 59.7933 81.1878 59.1986 81.1839 58.4581C81.1839 58.4235 81.1839 58.389 81.1839 58.3545V58.0514C80.125 59.0106 78.7514 59.5401 77.3242 59.5401C73.9593 59.6245 71.1623 56.9656 71.0779 53.5969C70.9935 50.2282 73.6524 47.435 77.0211 47.3506C77.1246 47.3506 77.2244 47.3506 77.328 47.3506C78.7476 47.366 80.1135 47.8878 81.1878 48.8163V48.6897C81.1341 47.953 81.6866 47.3084 82.4232 47.2547C82.4577 47.2547 82.4923 47.2547 82.5268 47.2547C83.3249 47.2394 83.9809 47.8686 84.0001 48.6666C84.0001 48.6743 84.0001 48.682 84.0001 48.6897H83.9925ZM80.4857 53.4588C80.5087 51.7092 79.1044 50.2743 77.3548 50.2512C75.6053 50.2282 74.1703 51.6325 74.1473 53.382C74.1243 55.1316 75.5285 56.5666 77.2781 56.5896C77.2973 56.5896 77.3126 56.5896 77.3318 56.5896C79.066 56.5819 80.4741 55.1892 80.4933 53.4549H80.4857V53.4588Z" fill="url(#paint1_linear_267_222)"/>
<defs>
<linearGradient id="paint0_linear_267_222" x1="42.1327" y1="40.8703" x2="42.1327" y2="0.660993" gradientUnits="userSpaceOnUse">
<stop offset="0.42" stop-color="#A2CFDC"/>
<stop offset="1" stop-color="#333399"/>
</linearGradient>
<linearGradient id="paint1_linear_267_222" x1="84.0001" y1="54.0266" x2="0.258789" y2="54.0266" gradientUnits="userSpaceOnUse">
<stop offset="0.42" stop-color="#51AED1"/>
<stop offset="1" stop-color="#333399"/>
</linearGradient>
</defs>
</svg>
