<svg width="88" height="67" viewBox="0 0 88 67" fill="none" xmlns="http://www.w3.org/2000/svg">
<path d="M44.1327 40.8703C42.5788 40.8703 41.0556 40.456 39.7204 39.6656L30.1669 34.0255C27.5272 32.4601 25.9081 29.6209 25.9004 26.5515V14.976C25.9081 11.9104 27.5272 9.07119 30.1669 7.50579L39.7204 1.86574C42.4407 0.258132 45.8247 0.258132 48.545 1.86574L58.0986 7.50579C60.7383 9.07119 62.3574 11.9104 62.3651 14.976V26.5515C62.3574 29.6171 60.7383 32.4563 58.0986 34.0217L48.545 39.6618C47.2098 40.4521 45.6866 40.8703 44.1327 40.8703ZM44.1327 3.0091C43.0009 3.0091 41.8921 3.3122 40.9175 3.88772L31.364 9.52777C29.4417 10.6711 28.26 12.7391 28.2562 14.976V26.5515C28.26 28.7884 29.4417 30.8564 31.364 31.9997L40.9175 37.6398C42.9011 38.81 45.3643 38.81 47.3479 37.6398L56.9015 31.9997C58.8237 30.8564 60.0054 28.7884 60.0093 26.5515V14.976C60.0054 12.7391 58.8237 10.6711 56.9015 9.52777L47.3479 3.88772C46.3734 3.3122 45.2646 3.0091 44.1327 3.0091Z" fill="white"/>
<path d="M52.1758 15.5669C52.0031 15.2408 51.7039 15.0029 51.347 14.907C50.9979 14.7996 50.618 14.8418 50.2996 15.0221L44.3526 18.4062L38.5552 15.0758C38.2368 14.8955 37.857 14.8533 37.5078 14.9607C36.775 15.1756 36.3491 15.9391 36.5563 16.6758C36.6522 17.0288 36.8901 17.328 37.2124 17.5007L42.9675 20.808V27.4533C42.9599 27.8216 43.1095 28.1746 43.3742 28.4278C43.9152 28.9649 44.7938 28.9649 45.3348 28.4278C45.5996 28.1746 45.7492 27.8216 45.7415 27.4533V20.8195L51.6463 17.447C51.9686 17.2743 52.2065 16.975 52.3024 16.6221C52.406 16.2691 52.3599 15.8854 52.1758 15.5669Z" fill="white"/>
<path d="M44.3413 15.9275C45.28 15.9275 46.041 15.1665 46.041 14.2278C46.041 13.2891 45.28 12.5281 44.3413 12.5281C43.4026 12.5281 42.6416 13.2891 42.6416 14.2278C42.6416 15.1665 43.4026 15.9275 44.3413 15.9275Z" fill="white"/>
<path d="M3.85105 45.0524C2.99161 45.0601 2.28181 44.3771 2.26263 43.5177V43.3911C2.26263 42.5278 2.96475 41.8257 3.82803 41.8257C4.6913 41.8257 5.39343 42.5278 5.39343 43.3911V43.5177C5.37808 44.3618 4.69514 45.0409 3.85105 45.0524ZM3.85105 59.8662C2.9801 59.8738 2.2703 59.1794 2.25879 58.3084V48.5592C2.25879 47.6959 2.96092 46.9938 3.82419 46.9938C4.68746 46.9938 5.38959 47.6959 5.38959 48.5592V58.3084C5.38192 59.1602 4.70281 59.8508 3.85105 59.8662ZM19.0715 53.5317V58.3084C19.0715 59.1372 18.4001 59.8125 17.5675 59.8125C16.7349 59.8125 16.0635 59.141 16.0635 58.3084V53.5317C16.0635 51.7399 14.7513 50.3011 13.1629 50.3011C11.1946 50.3011 10.1856 52.2694 10.1856 54.0113V58.3084C10.1434 59.1449 9.43355 59.7894 8.59713 59.7472C7.81827 59.7089 7.20055 59.0873 7.15834 58.3084V48.659C7.16985 47.8264 7.84129 47.155 8.67387 47.1434C9.31845 47.1473 9.89012 47.5655 10.0858 48.1794C10.999 47.5847 12.0656 47.2701 13.1552 47.2701C16.4165 47.2701 19.0638 50.0747 19.0638 53.5317H19.0715ZM26.5302 59.8163C23.0311 59.7971 20.211 56.9464 20.2302 53.4473C20.2494 49.9481 23.1001 47.1281 26.5993 47.1473C30.0946 47.1665 32.9107 50.0095 32.8992 53.5048C32.8839 57.0039 30.0332 59.8316 26.534 59.8163C26.534 59.8163 26.534 59.8163 26.5302 59.8163ZM26.5302 50.2512C24.7461 50.2512 23.2996 51.6977 23.2996 53.4818C23.2996 55.2659 24.7461 56.7123 26.5302 56.7123C28.3143 56.7123 29.7608 55.2659 29.7608 53.4818C29.7684 51.7054 28.3296 50.2589 26.5532 50.2512C26.5455 50.2512 26.5379 50.2512 26.5302 50.2512ZM39.3757 59.8163H39.3488C38.7887 59.8086 38.2822 59.4863 38.0367 58.9837L33.2906 49.5184C32.9261 48.7741 33.2292 47.8724 33.9735 47.5003C34.7102 47.1358 35.6042 47.4427 35.9648 48.1794C35.9648 48.1794 35.9648 48.1794 35.9648 48.1832L39.3719 54.9973L42.7789 48.3597C43.1472 47.6269 44.0412 47.3353 44.774 47.7036C45.5069 48.0719 45.7985 48.9659 45.4301 49.6987L40.684 58.9876C40.4423 59.4863 39.9397 59.8048 39.3834 59.8163H39.3719H39.3757ZM58.8588 48.6897V58.3545C58.8588 59.1525 58.2104 59.7971 57.4124 59.7933C57.4047 59.7933 57.4008 59.7933 57.3932 59.7933C56.6527 59.7933 56.0541 59.1986 56.0503 58.4581C56.0503 58.4235 56.0503 58.389 56.0503 58.3545V58.0514C54.9914 59.0106 53.6178 59.5401 52.1905 59.5401C48.8257 59.6245 46.0287 56.9656 45.9443 53.5969C45.8598 50.2282 48.5187 47.435 51.8874 47.3506C51.991 47.3506 52.0908 47.3506 52.1943 47.3506C53.6216 47.3621 54.9952 47.8801 56.0733 48.8124V48.6858C56.0196 47.9492 56.5721 47.3046 57.3088 47.2509C57.3433 47.2509 57.3778 47.2509 57.4124 47.2509C58.2104 47.2432 58.8627 47.8801 58.8703 48.6782C58.8703 48.682 58.8703 48.6858 58.8703 48.6897H58.8588ZM55.352 53.4588C55.375 51.7092 53.9708 50.2743 52.2212 50.2512C50.4716 50.2282 49.0367 51.6325 49.0137 53.382C48.9906 55.1316 50.3949 56.5666 52.1445 56.5896C52.1637 56.5896 52.179 56.5896 52.1982 56.5896C53.9324 56.5857 55.3443 55.1892 55.3635 53.4549H55.352V53.4588ZM72.0842 48.8163V59.8432C72.1187 63.3154 69.3485 66.1662 65.8763 66.2275C64.0576 66.2237 62.3388 65.4065 61.1839 64.0061C60.6583 63.3653 60.7235 62.4253 61.3335 61.8613C61.9091 61.3357 62.803 61.374 63.3287 61.9495C63.3555 61.9764 63.3785 62.0071 63.4016 62.0378C64.5449 63.419 66.5899 63.6109 67.9712 62.4675C68.75 61.8229 69.1836 60.8522 69.1452 59.8432V58.8072C68.2704 59.3098 67.2767 59.5746 66.2676 59.5746C63.0869 59.5746 60.4894 56.7968 60.4894 53.3667V48.8623C60.4472 48.0528 61.0688 47.366 61.8784 47.3238C62.6879 47.2816 63.3747 47.9031 63.4169 48.7127C63.4169 48.7626 63.4169 48.8124 63.4169 48.8623V53.3782C63.4169 55.1201 64.7022 56.5589 66.2676 56.5589C67.833 56.5589 69.1452 55.1201 69.1452 53.3782V48.8124C69.1452 47.9952 69.8051 47.3353 70.6224 47.3353C71.4396 47.3353 72.0995 47.9952 72.0995 48.8124L72.0842 48.8201V48.8163ZM85.9925 48.6897V58.3545C85.9925 59.1525 85.344 59.7971 84.546 59.7933C84.5383 59.7933 84.5345 59.7933 84.5268 59.7933C83.7863 59.7933 83.1878 59.1986 83.1839 58.4581C83.1839 58.4235 83.1839 58.389 83.1839 58.3545V58.0514C82.125 59.0106 80.7514 59.5401 79.3242 59.5401C75.9593 59.6245 73.1623 56.9656 73.0779 53.5969C72.9935 50.2282 75.6524 47.435 79.0211 47.3506C79.1246 47.3506 79.2244 47.3506 79.328 47.3506C80.7476 47.366 82.1135 47.8878 83.1878 48.8163V48.6897C83.1341 47.953 83.6866 47.3084 84.4232 47.2547C84.4577 47.2547 84.4923 47.2547 84.5268 47.2547C85.3249 47.2394 85.9809 47.8686 86.0001 48.6666C86.0001 48.6743 86.0001 48.682 86.0001 48.6897H85.9925ZM82.4857 53.4588C82.5087 51.7092 81.1044 50.2743 79.3548 50.2512C77.6053 50.2282 76.1703 51.6325 76.1473 53.382C76.1243 55.1316 77.5285 56.5666 79.2781 56.5896C79.2973 56.5896 79.3126 56.5896 79.3318 56.5896C81.066 56.5819 82.4741 55.1892 82.4933 53.4549H82.4857V53.4588Z" fill="white"/>
</svg>
